PathFileType	4	(X/Y/Z)	Patient4_TMGait_0pt7_02_right_51.trc.trc
DataRate	CameraRate	NumFrames	NumMarkers	Units	OrigDataRate	OrigDataStartFrame	OrigNumFrames
90.322580645161	90.322580645161	4	33	mm	90.322580645161	106	       141
Frame#	Time	Sacral			L.Shoulder			Chest			R.Shoulder			Neck			R.ASIS			L.ASIS			R.Thigh.Superior			R.Thigh.Lateral			R.Thigh.Inferior			R.Patella			L.Thigh.Superior			L.Thigh.Lateral			L.Thigh.Inferior			L.Patella			L.Shank.Superior			L.Shank.Lateral			L.Shank.Inferior			R.Shank.Superior			R.Shank.Lateral			R.Shank.Inferior			R.Heel			R.Midfoot.Superior			R.Midfoot.Lateral			R.Toe			L.Heel			L.Midfoot.Lateral			L.Midfoot.Superior			L.Toe			L.Elbow			L.Wrist			R.Elbow			R.Wrist			
		X1	Y1	Z1	X2	Y2	Z2	X3	Y3	Z3	X4	Y4	Z4	X5	Y5	Z5	X6	Y6	Z6	X7	Y7	Z7	X8	Y8	Z8	X9	Y9	Z9	X10	Y10	Z10	X11	Y11	Z11	X12	Y12	Z12	X13	Y13	Z13	X14	Y14	Z14	X15	Y15	Z15	X16	Y16	Z16	X17	Y17	Z17	X18	Y18	Z18	X19	Y19	Z19	X20	Y20	Z20	X21	Y21	Z21	X22	Y22	Z22	X23	Y23	Z23	X24	Y24	Z24	X25	Y25	Z25	X26	Y26	Z26	X27	Y27	Z27	X28	Y28	Z28	X29	Y29	Z29	X30	Y30	Z30	X31	Y31	Z31	X32	Y32	Z32	X33	Y33	Z33	

106	59.042500000000	761.670808442037	1009.074923075712	455.789002967260	947.655391466236	1432.581022043452	273.928721721021	1051.219840628372	1364.225800548050	436.428866828836	967.626873729572	1440.692187021215	609.699050540623	945.329268770336	1495.486767817357	429.683455243711	987.039104361149	942.653435550443	574.623799132834	979.203609728403	966.338137928515	301.661359906847	1082.363898209940	795.126697469236	544.263667921673	1062.155102746452	673.812249473294	626.649521048218	1154.994020902772	643.685990104757	545.917012549187	1189.261457071808	531.677597652641	572.732046366836	1018.247441240668	751.080306473133	327.212950926741	923.966401951794	641.034525895255	263.553815298174	1001.222817616621	558.026282956300	327.373836697881	996.586818827230	490.198308882494	337.352688080858	972.260102407330	419.398831668189	326.885246198073	884.247756458075	303.792587094163	275.952583622080	936.706873297665	194.216195129447	348.935570188743	1117.040075932829	450.700880818343	582.208535734673	996.687350521794	405.443851711545	641.095578055606	990.483888896443	294.277821392482	595.635337852577	795.638349278005	226.305966443651	565.867321713100	964.123754232506	167.904445073388	610.906445739980	853.109459540444	165.766843102345	639.686867115772	1027.238779278549	53.841036868121	635.454273423849	810.865147355501	37.570218476704	394.414524207932	882.749186511683	34.703243950879	311.123622043519	965.131467408686	97.100520719364	336.330900289950	1093.349288232090	49.413440921629	304.828980161890	977.897351404300	1087.085948929551	142.394023512022	1142.786006238299	883.557198985630	154.293800585678	926.781196929423	1095.603381800082	731.008865825648	1114.331054692399	918.884246301432	701.717453824767	
107	59.053571428571	760.912836175264	1009.205729341775	455.004875009057	949.369215154238	1432.578991608540	274.269596707102	1051.247184434137	1364.117645018398	437.770802153030	966.097235150641	1440.647928074952	610.210453255460	945.445683590265	1495.462520766729	429.980798844566	985.699286835672	942.849129748492	575.650155276763	979.522123014043	966.383889654237	302.444463496893	1082.161693190293	797.468804468596	544.770546642877	1063.424791127927	675.752632737690	627.214460806409	1156.746147277749	646.810248314903	546.818142741654	1192.811468062913	536.023801329426	573.506026121751	1016.038498453584	750.001735032962	328.119357880374	920.611219171765	641.006217979845	263.674955039203	996.285605783250	557.073188044990	327.842290173243	990.750672501326	489.448763021805	337.829744518737	966.291052200144	418.939676943153	327.150648158280	877.901524052976	303.768687742950	275.914406024771	929.515138747198	193.948271580923	349.076680232629	1123.484663179047	453.156888133652	583.274144211594	1005.485760458598	403.330462123836	643.100966875049	1003.213336258945	291.903982430480	597.676208559162	810.672662329043	215.833351784515	569.562789841262	982.137733159644	165.063035851036	613.355028486782	871.467072431689	158.202163430076	643.090915452751	1050.414198219823	53.887151802577	637.784321186314	803.023123061111	37.556761920780	394.408897117761	874.938326617228	34.678620398230	311.118056911896	957.367265506303	97.014743366689	336.424903689235	1085.570651501711	49.302354492469	304.865332326014	987.524751810232	1089.992181519470	139.000775810950	1162.318552312939	895.052064511474	153.667862089142	921.029826822713	1095.745320285269	731.659595615173	1092.114778259563	901.105612890760	710.246328705381	
108	59.064642857143	760.364702129732	1009.300185110283	454.371586437451	951.140045215571	1432.557395923083	274.773878853940	1051.412089153261	1363.942130146824	439.178406602116	964.833499245840	1440.484671312992	610.863746451752	945.679468170763	1495.377608581406	430.444156930258	984.486046783959	942.923001214026	576.743131957544	979.960129717692	966.366710797105	303.266005964933	1081.828420343394	799.322302703290	545.553453055147	1064.039931595672	677.154097124826	627.898655216862	1157.923221049383	649.262508555138	548.038265089187	1195.544172043203	539.823104199058	574.510050541732	1013.879622509687	748.885388080118	329.094566885318	917.251956772405	640.963606886044	263.866806236539	991.303213231009	556.103342417156	328.370757050359	984.895363713546	488.708809427132	338.328915993578	960.290089085277	418.488902060163	327.454570017383	871.519713116086	303.762038816140	275.908066662630	922.307185763308	193.690601415627	349.228658334012	1129.311268147878	455.177367160523	584.531373892071	1014.068456453287	400.553297029658	645.345137241172	1016.055081786423	289.043526812191	599.957644718546	826.505412550728	204.390016070339	573.476535963697	1000.603032214965	161.855751325845	616.056473200815	890.570670021654	150.052522687165	646.744831904555	1074.170674712889	54.096210340892	640.504708793795	795.193851214945	37.552003778383	394.399589530989	867.127300092220	34.655890902554	311.111742092116	949.606041049278	96.935571015661	336.512548699779	1077.790355881476	49.192175457351	304.897279771930	996.661224664518	1093.092991950492	135.850073359347	1180.920816514306	907.328075060856	153.521113792502	915.824130082346	1095.729578827806	732.376341343403	1068.707188360791	885.226602623657	718.813690166504	
109	59.075714285714	760.040860308746	1009.358246211138	453.894104748512	952.954906831596	1432.522119277285	275.449736641077	1051.725411638873	1363.695511344219	440.644728468569	963.867507392271	1440.198687874882	611.666673998242	946.044966094456	1495.228604108253	431.085950873187	983.417198596267	942.869163953044	577.884748805531	980.515216845520	966.274554433539	304.126456476948	1081.357627353473	800.631535559411	546.599655088272	1063.987855912232	677.968236398763	628.702918224072	1158.485855360996	650.960402049914	549.547091734428	1197.410245056056	542.990819946034	575.726715081386	1011.784025006512	747.726267637934	330.132424406583	913.901531827603	640.906643110321	264.135356854541	986.303215109415	555.120727170975	328.956984254034	979.052384601077	487.980300030197	338.848443178609	954.277379697537	418.046069146767	327.800694915939	865.115984539233	303.776230327481	275.937149972845	915.094267554489	193.442572612078	349.392843371390	1134.452894431059	456.721499979783	585.966385937050	1022.396517993686	397.117591154216	647.801356585086	1028.960109049168	285.749482641559	602.443112454756	843.190589108383	192.064322441619	577.524330443153	1019.470929028429	158.400064586681	618.984682827111	910.408007857087	141.422175951483	650.579699699659	1098.406353447884	54.647620957712	643.580195689588	787.379831646423	37.560916747339	394.383449645905	859.316559376358	34.637531981849	311.105055436458	941.848465047147	96.861026143429	336.594274267854	1070.008552440227	49.079739927613	304.925450210140	1005.282647654961	1096.337829844090	132.969237490793	1198.515036621496	920.312195273848	153.837927792999	910.978560197691	1095.613104997821	733.159052071111	1044.370397076376	871.497313242061	727.298000710826	
